{"asset":{"generator":"glTF-Transform v4.0.2","version":"2.0","extras":{"author":"dogflesh (https://sketchfab.com/dogflesh)","license":"CC-BY-4.0 (http://creativecommons.org/licenses/by/4.0/)","source":"https://sketchfab.com/3d-models/retro-computer-9439cb5e09cc44caa63dfbfb299df45f","title":"Retro computer"}},"accessors":[{"type":"SCALAR","componentType":5123,"count":63690,"bufferView":0,"byteOffset":0},{"type":"VEC3","componentType":5126,"count":20678,"bufferView":1,"byteOffset":0},{"type":"VEC3","componentType":5126,"count":20678,"max":[0.35146600008010864,0.09704700112342834,0.13024300336837769],"min":[-0.35146600008010864,-0.5712090134620667,-0.13024300336837769],"bufferView":1,"byteOffset":12},{"type":"VEC2","componentType":5126,"count":20678,"bufferView":1,"byteOffset":24}],"bufferViews":[{"buffer":0,"byteOffset":0,"byteLength":127380,"target":34963},{"buffer":0,"byteOffset":127380,"byteLength":661696,"byteStride":32,"target":34962}],"samplers":[{"magFilter":9729,"minFilter":9987,"wrapS":10497,"wrapT":10497}],"textures":[{"sampler":0,"extensions":{"EXT_texture_webp":{"source":0}}}],"images":[{"mimeType":"image/webp","uri":"textures/None_diffuse.webp"}],"buffers":[{"uri":"scene.bin","byteLength":789076}],"materials":[{"name":"None","doubleSided":true,"pbrMetallicRoughness":{"metallicFactor":0,"baseColorTexture":{"index":0}},"extensions":{"KHR_materials_ior":{"ior":1000},"KHR_materials_specular":{"specularColorFactor":[0,0,0]}}}],"meshes":[{"name":"Object_0","primitives":[{"attributes":{"NORMAL":1,"POSITION":2,"TEXCOORD_0":3},"mode":4,"material":0,"indices":0}]}],"nodes":[{"name":"Object_2","rotation":[-0.7071067811865475,0,0,0.7071067811865476],"mesh":0}],"scenes":[{"name":"Sketchfab_Scene","nodes":[0]}],"scene":0,"extensionsUsed":["EXT_texture_webp","KHR_materials_ior","KHR_materials_specular"],"extensionsRequired":["EXT_texture_webp"]}