{
	"asset":{
		"generator":"Khronos glTF Blender I/O v3.6.27",
		"version":"2.0"
	},
	"scene":0,
	"scenes":[
		{
			"name":"Scene",
			"nodes":[
				8
			]
		}
	],
	"nodes":[
		{
			"mesh":0,
			"name":"Object_4"
		},
		{
			"mesh":1,
			"name":"Object_5"
		},
		{
			"name":"Object_6"
		},
		{
			"mesh":2,
			"name":"Object_7"
		},
		{
			"mesh":3,
			"name":"Object_8"
		},
		{
			"children":[
				0,
				1,
				2,
				3,
				4
			],
			"name":"TV_1",
			"scale":[
				1,
				1,
				1.6931151151657104
			]
		},
		{
			"children":[
				5
			],
			"name":"GLTF_SceneRootNode",
			"rotation":[
				0.70710688829422,
				0,
				0,
				0.7071066498756409
			]
		},
		{
			"children":[
				6
			],
			"name":"root"
		},
		{
			"children":[
				7
			],
			"name":"Sketchfab_model",
			"rotation":[
				-0.70710688829422,
				0,
				0,
				0.7071066498756409
			],
			"scale":[
				0.6150744557380676,
				0.6150745153427124,
				0.6150745153427124
			]
		}
	],
	"materials":[
		{
			"doubleSided":true,
			"name":"Metal",
			"pbrMetallicRoughness":{
				"baseColorTexture":{
					"index":0
				},
				"roughnessFactor":0.04261796176433563
			}
		},
		{
			"doubleSided":true,
			"name":"Madera",
			"pbrMetallicRoughness":{
				"baseColorTexture":{
					"index":1
				},
				"metallicFactor":0,
				"roughnessFactor":0.31818199157714844
			}
		},
		{
			"doubleSided":true,
			"emissiveFactor":[
				1,
				1,
				1
			],
			"emissiveTexture":{
				"index":2
			},
			"name":"material",
			"pbrMetallicRoughness":{
				"baseColorTexture":{
					"index":3
				}
			}
		},
		{
			"doubleSided":true,
			"name":"Metal.001",
			"pbrMetallicRoughness":{
				"baseColorTexture":{
					"index":4
				},
				"roughnessFactor":0.15220700204372406
			}
		}
	],
	"meshes":[
		{
			"name":"Object_0",
			"primitives":[
				{
					"attributes":{
						"POSITION":0,
						"NORMAL":1,
						"TEXCOORD_0":2
					},
					"indices":3,
					"material":0
				}
			]
		},
		{
			"name":"Object_1",
			"primitives":[
				{
					"attributes":{
						"POSITION":4,
						"NORMAL":5,
						"TEXCOORD_0":6
					},
					"indices":7,
					"material":1
				}
			]
		},
		{
			"name":"Object_3",
			"primitives":[
				{
					"attributes":{
						"POSITION":8,
						"NORMAL":9,
						"TEXCOORD_0":10
					},
					"indices":11,
					"material":2
				}
			]
		},
		{
			"name":"Object_4",
			"primitives":[
				{
					"attributes":{
						"POSITION":12,
						"NORMAL":13,
						"TEXCOORD_0":14
					},
					"indices":15,
					"material":3
				}
			]
		}
	],
	"textures":[
		{
			"sampler":0,
			"source":0
		},
		{
			"sampler":0,
			"source":0
		},
		{
			"sampler":0,
			"source":0
		},
		{
			"sampler":0,
			"source":0
		},
		{
			"sampler":0,
			"source":0
		}
	],
	"images":[
		{
			"mimeType":"image/png",
			"name":"Metal_baseColor",
			"uri":"Metal_baseColor.png"
		}
	],
	"accessors":[
		{
			"bufferView":0,
			"componentType":5126,
			"count":2460,
			"max":[
				1.0471142530441284,
				0.9495988488197327,
				0.9495988488197327
			],
			"min":[
				0.8987306952476501,
				-0.9495988488197327,
				-0.9495988488197327
			],
			"type":"VEC3"
		},
		{
			"bufferView":1,
			"componentType":5126,
			"count":2460,
			"type":"VEC3"
		},
		{
			"bufferView":2,
			"componentType":5126,
			"count":2460,
			"type":"VEC2"
		},
		{
			"bufferView":3,
			"componentType":5123,
			"count":7329,
			"type":"SCALAR"
		},
		{
			"bufferView":4,
			"componentType":5126,
			"count":889,
			"max":[
				1.008373737335205,
				1,
				1
			],
			"min":[
				-1.3065800666809082,
				-1.2002445459365845,
				-1
			],
			"type":"VEC3"
		},
		{
			"bufferView":5,
			"componentType":5126,
			"count":889,
			"type":"VEC3"
		},
		{
			"bufferView":6,
			"componentType":5126,
			"count":889,
			"type":"VEC2"
		},
		{
			"bufferView":7,
			"componentType":5123,
			"count":2181,
			"type":"SCALAR"
		},
		{
			"bufferView":8,
			"componentType":5126,
			"count":16,
			"max":[
				0.9739786386489868,
				0.8903194069862366,
				-0.5494918823242188
			],
			"min":[
				0.9600399136543274,
				-0.8451714515686035,
				-0.9045796394348145
			],
			"type":"VEC3"
		},
		{
			"bufferView":9,
			"componentType":5126,
			"count":16,
			"type":"VEC3"
		},
		{
			"bufferView":10,
			"componentType":5126,
			"count":16,
			"type":"VEC2"
		},
		{
			"bufferView":11,
			"componentType":5123,
			"count":24,
			"type":"SCALAR"
		},
		{
			"bufferView":12,
			"componentType":5126,
			"count":64,
			"max":[
				1.008373737335205,
				-0.47607892751693726,
				-0.8485842943191528
			],
			"min":[
				1.008373737335205,
				-0.6770641207695007,
				-0.884730875492096
			],
			"type":"VEC3"
		},
		{
			"bufferView":13,
			"componentType":5126,
			"count":64,
			"type":"VEC3"
		},
		{
			"bufferView":14,
			"componentType":5126,
			"count":64,
			"type":"VEC2"
		},
		{
			"bufferView":15,
			"componentType":5123,
			"count":180,
			"type":"SCALAR"
		}
	],
	"bufferViews":[
		{
			"buffer":0,
			"byteLength":29520,
			"byteOffset":0,
			"target":34962
		},
		{
			"buffer":0,
			"byteLength":29520,
			"byteOffset":29520,
			"target":34962
		},
		{
			"buffer":0,
			"byteLength":19680,
			"byteOffset":59040,
			"target":34962
		},
		{
			"buffer":0,
			"byteLength":14658,
			"byteOffset":78720,
			"target":34963
		},
		{
			"buffer":0,
			"byteLength":10668,
			"byteOffset":93380,
			"target":34962
		},
		{
			"buffer":0,
			"byteLength":10668,
			"byteOffset":104048,
			"target":34962
		},
		{
			"buffer":0,
			"byteLength":7112,
			"byteOffset":114716,
			"target":34962
		},
		{
			"buffer":0,
			"byteLength":4362,
			"byteOffset":121828,
			"target":34963
		},
		{
			"buffer":0,
			"byteLength":192,
			"byteOffset":126192,
			"target":34962
		},
		{
			"buffer":0,
			"byteLength":192,
			"byteOffset":126384,
			"target":34962
		},
		{
			"buffer":0,
			"byteLength":128,
			"byteOffset":126576,
			"target":34962
		},
		{
			"buffer":0,
			"byteLength":48,
			"byteOffset":126704,
			"target":34963
		},
		{
			"buffer":0,
			"byteLength":768,
			"byteOffset":126752,
			"target":34962
		},
		{
			"buffer":0,
			"byteLength":768,
			"byteOffset":127520,
			"target":34962
		},
		{
			"buffer":0,
			"byteLength":512,
			"byteOffset":128288,
			"target":34962
		},
		{
			"buffer":0,
			"byteLength":360,
			"byteOffset":128800,
			"target":34963
		}
	],
	"samplers":[
		{
			"magFilter":9729,
			"minFilter":9987
		}
	],
	"buffers":[
		{
			"byteLength":129160,
			"uri":"TV.bin"
		}
	]
}
