{
  "accessors": [
    {
      "bufferView": 2,
      "componentType": 5126,
      "count": 92,
      "max": [
        1.0000070333480835,
        0.4131225049495697,
        1.0143674612045288
      ],
      "min": [
        -0.9999929666519165,
        -0.17572009563446045,
        -0.9856324791908264
      ],
      "type": "VEC3"
    },
    {
      "bufferView": 2,
      "byteOffset": 1104,
      "componentType": 5126,
      "count": 92,
      "max": [
        0.9807854294776917,
        1.0,
        0.9807856678962708
      ],
      "min": [
        -0.9807854294776917,
        -0.9999361038208008,
        -0.9807853698730469
      ],
      "type": "VEC3"
    },
    {
      "bufferView": 1,
      "componentType": 5126,
      "count": 92,
      "max": [
        0.875,
        1.0
      ],
      "min": [
        0.125,
        0.01632515899837017
      ],
      "type": "VEC2"
    },
    {
      "bufferView": 0,
      "componentType": 5125,
      "count": 198,
      "type": "SCALAR"
    },
    {
      "bufferView": 2,
      "byteOffset": 2208,
      "componentType": 5126,
      "count": 88,
      "max": [
        0.6944891810417175,
        -0.1669967770576477,
        0.8161359429359436
      ],
      "min": [
        -0.6944751143455505,
        -0.3447228670120239,
        -0.7874009013175964
      ],
      "type": "VEC3"
    },
    {
      "bufferView": 2,
      "byteOffset": 3264,
      "componentType": 5126,
      "count": 88,
      "max": [
        1.0,
        0.0,
        1.0
      ],
      "min": [
        -1.0,
        -1.0,
        -1.0
      ],
      "type": "VEC3"
    },
    {
      "bufferView": 1,
      "byteOffset": 736,
      "componentType": 5126,
      "count": 88,
      "max": [
        0.5769285559654236,
        0.9519286155700684
      ],
      "min": [
        0.4230714440345764,
        0.7980714440345764
      ],
      "type": "VEC2"
    },
    {
      "bufferView": 0,
      "byteOffset": 792,
      "componentType": 5125,
      "count": 150,
      "type": "SCALAR"
    },
    {
      "bufferView": 2,
      "byteOffset": 4320,
      "componentType": 5126,
      "count": 72,
      "max": [
        0.5637159943580627,
        0.1580180525779724,
        0.7326235771179199
      ],
      "min": [
        -0.5637159943580627,
        -0.13192647695541382,
        -0.5849558115005493
      ],
      "type": "VEC3"
    },
    {
      "bufferView": 2,
      "byteOffset": 5184,
      "componentType": 5126,
      "count": 72,
      "max": [
        1.0,
        0.0,
        1.0
      ],
      "min": [
        -1.0,
        -0.9919402599334717,
        -1.0
      ],
      "type": "VEC3"
    },
    {
      "bufferView": 1,
      "byteOffset": 1440,
      "componentType": 5126,
      "count": 72,
      "max": [
        0.5713295340538025,
        0.945464551448822
      ],
      "min": [
        0.4286704659461975,
        0.804535448551178
      ],
      "type": "VEC2"
    },
    {
      "bufferView": 0,
      "byteOffset": 1392,
      "componentType": 5125,
      "count": 120,
      "type": "SCALAR"
    }
  ],
  "asset": {
    "extras": {
      "author": "Vegetable Assets (https://sketchfab.com/skrypious2)",
      "license": "CC-BY-4.0 (http://creativecommons.org/licenses/by/4.0/)",
      "source": "https://sketchfab.com/3d-models/light-switch-a45fb4b8dce9416eabf12679af914b99",
      "title": "Light Switch"
    },
    "generator": "Sketchfab-12.68.0",
    "version": "2.0"
  },
  "bufferViews": [
    {
      "buffer": 0,
      "byteLength": 1872,
      "name": "floatBufferViews",
      "target": 34963
    },
    {
      "buffer": 0,
      "byteLength": 2016,
      "byteOffset": 1872,
      "byteStride": 8,
      "name": "floatBufferViews",
      "target": 34962
    },
    {
      "buffer": 0,
      "byteLength": 6048,
      "byteOffset": 3888,
      "byteStride": 12,
      "name": "floatBufferViews",
      "target": 34962
    }
  ],
  "buffers": [
    {
      "byteLength": 9936,
      "uri": "scene.bin"
    }
  ],
  "materials": [
    {
      "doubleSided": true,
      "name": "Mat1",
      "pbrMetallicRoughness": {
        "baseColorFactor": [
          0.673847,
          0.673847,
          0.673847,
          1.0
        ],
        "metallicFactor": 0.0,
        "roughnessFactor": 0.8349418685294784
      }
    },
    {
      "doubleSided": true,
      "name": "Mat2",
      "pbrMetallicRoughness": {
        "baseColorFactor": [
          0.507068,
          0.507068,
          0.507068,
          1.0
        ],
        "metallicFactor": 0.0,
        "roughnessFactor": 0.8866161482785136
      }
    },
    {
      "doubleSided": true,
      "name": "Mat3",
      "pbrMetallicRoughness": {
        "baseColorFactor": [
          0.548852,
          0.548852,
          0.548852,
          1.0
        ],
        "metallicFactor": 0.0,
        "roughnessFactor": 0.8772729618413285
      }
    }
  ],
  "meshes": [
    {
      "name": "SwitchBase_Mat1_0",
      "primitives": [
        {
          "attributes": {
            "NORMAL": 1,
            "POSITION": 0,
            "TEXCOORD_0": 2
          },
          "indices": 3,
          "material": 0,
          "mode": 4
        }
      ]
    },
    {
      "name": "SwitchBase_Mat2_0",
      "primitives": [
        {
          "attributes": {
            "NORMAL": 5,
            "POSITION": 4,
            "TEXCOORD_0": 6
          },
          "indices": 7,
          "material": 1,
          "mode": 4
        }
      ]
    },
    {
      "name": "Switch_Mat3_0",
      "primitives": [
        {
          "attributes": {
            "NORMAL": 9,
            "POSITION": 8,
            "TEXCOORD_0": 10
          },
          "indices": 11,
          "material": 2,
          "mode": 4
        }
      ]
    }
  ],
  "nodes": [
    {
      "children": [
        1
      ],
      "matrix": [
        1.0,
        0.0,
        0.0,
        0.0,
        0.0,
        2.220446049250313e-16,
        -1.0,
        0.0,
        0.0,
        1.0,
        2.220446049250313e-16,
        0.0,
        0.0,
        0.0,
        0.0,
        1.0
      ],
      "name": "Sketchfab_model"
    },
    {
      "children": [
        2
      ],
      "matrix": [
        1.0,
        0.0,
        0.0,
        0.0,
        0.0,
        0.0,
        1.0,
        0.0,
        0.0,
        -1.0,
        0.0,
        0.0,
        0.0,
        0.0,
        0.0,
        1.0
      ],
      "name": "bd853b39c3aa48caac681d4a05e38ac7.fbx"
    },
    {
      "children": [
        3,
        6
      ],
      "name": "RootNode"
    },
    {
      "children": [
        4,
        5
      ],
      "matrix": [
        240.00001525878906,
        0.0,
        0.0,
        0.0,
        0.0,
        -1.629206793918314e-05,
        -99.99999999999868,
        0.0,
        0.0,
        299.999999999996,
        -4.8876203817549424e-05,
        0.0,
        0.0,
        0.0,
        0.0,
        1.0
      ],
      "name": "SwitchBase"
    },
    {
      "mesh": 0,
      "name": "SwitchBase_Mat1_0"
    },
    {
      "mesh": 1,
      "name": "SwitchBase_Mat2_0"
    },
    {
      "children": [
        7
      ],
      "matrix": [
        240.00001525878906,
        0.0,
        0.0,
        0.0,
        0.0,
        -1.629206793918314e-05,
        -99.99999999999868,
        0.0,
        0.0,
        299.999999999996,
        -4.8876203817549424e-05,
        0.0,
        0.0016881919000297785,
        -17.839914321899414,
        46.2811393737793,
        1.0
      ],
      "name": "Switch"
    },
    {
      "mesh": 2,
      "name": "Switch_Mat3_0"
    }
  ],
  "scene": 0,
  "scenes": [
    {
      "name": "Sketchfab_Scene",
      "nodes": [
        0
      ]
    }
  ]
}
